<svg width="37" height="37" viewBox="0 0 37 37" fill="none" xmlns="http://www.w3.org/2000/svg">
<path d="M18.5 0C8.288 0 0 8.288 0 18.5C0 28.712 8.288 37 18.5 37C28.712 37 37 28.712 37 18.5C37 8.288 28.712 0 18.5 0ZM9.3795 30.118C10.175 28.453 15.022 26.825 18.5 26.825C21.978 26.825 26.8435 28.453 27.6205 30.118C25.1045 32.116 21.941 33.3 18.5 33.3C15.059 33.3 11.8955 32.116 9.3795 30.118ZM30.266 27.4355C27.6205 24.2165 21.201 23.125 18.5 23.125C15.799 23.125 9.3795 24.2165 6.734 27.4355C4.847 24.9565 3.7 21.867 3.7 18.5C3.7 10.3415 10.3415 3.7 18.5 3.7C26.6585 3.7 33.3 10.3415 33.3 18.5C33.3 21.867 32.153 24.9565 30.266 27.4355V27.4355ZM18.5 7.4C14.911 7.4 12.025 10.286 12.025 13.875C12.025 17.464 14.911 20.35 18.5 20.35C22.089 20.35 24.975 17.464 24.975 13.875C24.975 10.286 22.089 7.4 18.5 7.4ZM18.5 16.65C16.9645 16.65 15.725 15.4105 15.725 13.875C15.725 12.3395 16.9645 11.1 18.5 11.1C20.0355 11.1 21.275 12.3395 21.275 13.875C21.275 15.4105 20.0355 16.65 18.5 16.65Z" fill="#734A27"/>
</svg>
